<?xml version="1.0" standalone="no"?>
<!DOCTYPE svg PUBLIC "-//W3C//DTD SVG 20010904//EN"
 "http://www.w3.org/TR/2001/REC-SVG-20010904/DTD/svg10.dtd">
<svg version="1.0" xmlns="http://www.w3.org/2000/svg"
 width="512.000000pt" height="512.000000pt" viewBox="0 0 512.000000 512.000000"
 preserveAspectRatio="xMidYMid meet">
<metadata>
Created by potrace 1.11, written by Peter Selinger 2001-2013
</metadata>
<g transform="translate(0.000000,512.000000) scale(0.100000,-0.100000)"
fill="#000000" stroke="none">
<path d="M3320 4533 c-155 -15 -366 -131 -539 -295 -51 -49 -73 -77 -81 -107
-31 -117 50 -231 166 -231 29 0 64 4 77 9 14 5 78 50 144 100 183 139 262 168
368 140 71 -19 318 -147 409 -213 91 -66 152 -120 244 -218 69 -73 109 -92
176 -84 101 12 166 85 166 186 0 72 -19 102 -139 221 -312 307 -735 517 -991
492z"/>
<path d="M1417 3669 c-187 -17 -404 -75 -436 -116 -50 -62 -46 -155 8 -209 49
-50 96 -55 200 -24 114 33 241 51 371 51 197 0 356 -39 549 -135 52 -25 108
-46 125 -46 45 0 97 30 124 70 20 29 23 44 20 94 -4 56 -7 62 -48 99 -54 47
-175 106 -312 152 -165 55 -413 81 -601 64z"/>
<path d="M3333 3266 c-97 -32 -168 -100 -218 -210 -46 -101 -60 -166 -59 -286
0 -178 53 -320 155 -415 72 -66 135 -90 223 -83 153 13 268 132 320 335 20 77
21 247 1 330 -34 143 -124 272 -221 315 -59 26 -146 32 -201 14z"/>
<path d="M1575 3146 c-73 -31 -150 -108 -191 -193 -27 -54 -29 -66 -29 -178 0
-116 1 -123 33 -188 69 -140 176 -210 322 -211 66 -1 84 3 142 32 198 97 275
359 165 566 -68 129 -157 187 -297 193 -73 3 -93 0 -145 -21z"/>
<path d="M1504 1700 c-11 -4 -34 -24 -52 -44 -27 -31 -32 -44 -32 -89 0 -34 7
-63 20 -84 40 -67 -29 -63 1120 -63 1149 0 1080 -4 1120 63 13 21 20 50 20 85
0 48 -4 57 -39 95 l-40 42 -1048 2 c-576 1 -1057 -2 -1069 -7z"/>
</g>
</svg>
